<svg id="Group_1" data-name="Group 1" xmlns="http://www.w3.org/2000/svg" width="211.932" height="143.967" viewBox="0 0 211.932 143.967">
    <path id="Path_1" data-name="Path 1" d="M211.477,190.033a32.706,32.706,0,0,0-13.23-22.912c-7.38-5.565-15.849-8.592-24.742-10.618-.488-.187-.96-.431-1.465-.57-10.016-2.726-20.422-3.8-30.251-7.282a13.515,13.515,0,0,0-1.351-.814c-5.012-2.368-7.144-5.158-6.777-8.893.4-4.109,3.377-6.916,8.633-8.348,3.564-.976,7.209-.391,10.8-.8,12.066.814,23.318,4.483,34.042,9.861,2.473,1.245,3.7.871,5.044-1.562,4.117-7.461,8.291-14.906,12.823-22.122,2.034-3.246,1.367-4.573-1.806-6.24-17.509-9.186-36.157-12.514-55.75-11.366q-31.438-.061-62.869-.122c-5.988,0-9.438,3.124-9.3,8.283.13,4.89,3.621,7.835,9.4,7.851q14,.037,27.989-.016c5.5-.016,8.47,2.01,9.316,6.428.805,4.19-1.383,7.42-6.371,9.422q-25.19-.049-50.371-.1-28.229-.024-56.465,0c-5.712.016-8.681,2.791-8.771,7.868-.089,4.979,2.84,8.209,8.006,8.218,23.693.033,47.394-.057,71.086-.106,7.168.024,14.336.016,21.5.09,5.15.049,8.348,2.01,9.332,5.557,1.115,4.052-.309,7.038-4.841,10.089-5.687.049-11.366.081-17.054.146-5.272.065-10.569-.106-15.817.317-4.41.358-7.062,3.808-6.908,8.022.163,4.507,3.165,7.64,7.746,7.689,7.168.073,14.344-.065,21.52-.114,2.018.049,4.036.146,6.053.146,9.934-.024,19.861-.643,29.307,3.816,3.572,1.684,7.778,2.01,11.692,2.962h0c5.443,1.855,11.179,2.384,16.744,3.678,6.192,1.44,12.221,3.287,15.841,9.2h0c.667,6.338-.561,8.535-6.419,11.464-3.718,1.367-7.591,1.5-11.488,1.6-7.152.2-14.092-1.342-21.065-2.587a87.973,87.973,0,0,1-27.671-12.839A6.26,6.26,0,0,0,103.8,194.1c-5.256.114-10.5.13-15.76.179-19.893-.057-39.794-.163-59.687-.122-4.459,0-7.087,3.075-7.135,7.632-.057,4.833,2.514,8.039,7.144,8.047,20.707.057,41.413-.065,62.12-.13,3.881.594,7.876-.472,11.716.757,3.857,1.237,5.647,3.889,5.6,7.941-.049,3.848-2.042,6.029-5.622,6.924-1.432.358-2.913.553-4.369.814-12.18-.081-24.368-.236-36.548-.212-5.126.008-8.063,2.856-8.291,7.493-.236,4.971,2.457,8.4,7.7,8.47,12.147.171,24.311.456,36.458-.106a5.074,5.074,0,0,0,1.261-.049H98.4a10.751,10.751,0,0,0,1.587.26q25.9.037,51.8.024a10.425,10.425,0,0,0,2.286-.521,81.2,81.2,0,0,0,13.612-1.391,2.923,2.923,0,0,0,1.066-.228c3.572.374,6.916-.74,10.268-1.644,25.084-6.761,35.319-24.108,32.447-48.183Z" transform="translate(0.002 -98.152)" fill="#fff" fill-rule="evenodd"/>
    <path id="Path_2" data-name="Path 2" d="M46.918,192.48c2.84,0,5.687.212,8.5-.049,3.71-.35,6.265-3.246,6.485-7.135.212-3.718-1.163-7.241-4.833-7.99-7.144-1.448-14.483-1.863-21.634.374-3.246,1.017-4.516,3.515-4.548,6.883s1.326,5.7,4.41,7.03c3.751,1.6,7.721.936,11.61.895Z" transform="translate(-5.755 -112.682)" fill="#fff" fill-rule="evenodd"/>
</svg>
