<svg id="Group_51693" data-name="Group 51693" xmlns="http://www.w3.org/2000/svg" width="59.354" height="65.948" viewBox="0 0 59.354 65.948">
    <ellipse id="Ellipse_1506" data-name="Ellipse 1506" cx="18.548" cy="18.32" rx="18.548" ry="18.32" transform="translate(11.129 0)" fill="#1c8abb" opacity="0.4"/>
    <path id="Path_164939" data-name="Path 164939" d="M59.321,24.355h0a6.079,6.079,0,0,0,0-.783,7.06,7.06,0,0,0-.8-2.77c-1.8-3.523-6.858-5.119-11.076-6.023a62.253,62.253,0,0,0-9.144-1.2l-3.22-.241H24.258l-3.22.241a62.256,62.256,0,0,0-9.144,1.2C7.676,15.562,2.621,17.188.817,20.8a7.067,7.067,0,0,0-.8,2.77,6.11,6.11,0,0,0,0,.783h0a6.617,6.617,0,0,0,0,.783,7.077,7.077,0,0,0,.837,2.74C2.653,31.4,7.708,33,11.926,33.9a71.605,71.605,0,0,0,9.144,1.2l3.22.211H35.108l3.22-.211a71.61,71.61,0,0,0,9.144-1.2c4.218-.813,9.273-2.409,11.076-6.023a7.808,7.808,0,0,0,.8-2.8A5.88,5.88,0,0,0,59.321,24.355Z" transform="translate(0 30.632)" fill="#0f65e5"/>
</svg>
