<svg xmlns="http://www.w3.org/2000/svg" xmlns:xlink="http://www.w3.org/1999/xlink" width="100" height="100" viewBox="0 0 100 100"><defs><linearGradient id="a" x1="0.197" y1="0.718" x2="0.952" y2="0.297" gradientUnits="objectBoundingBox"><stop offset="0" stop-color="#20b8cb"/><stop offset="1" stop-color="#1b83b8"/></linearGradient></defs><g transform="translate(-165 -173)"><g transform="translate(165 173)" fill="#fff" stroke="#1c8abb" stroke-width="3"><circle cx="50" cy="50" r="50" stroke="none"/><circle cx="50" cy="50" r="48.5" fill="none"/></g><path d="M67.481,127.472a10.437,10.437,0,0,0-4.222-7.311,20.263,20.263,0,0,0-7.9-3.388c-.156-.06-.306-.138-.467-.182-3.2-.87-6.517-1.212-9.653-2.324a4.315,4.315,0,0,0-.431-.26c-1.6-.756-2.28-1.646-2.163-2.838.127-1.311,1.077-2.207,2.755-2.664a21.915,21.915,0,0,1,3.445-.254A28.367,28.367,0,0,1,59.713,111.4c.789.4,1.181.278,1.61-.5,1.314-2.381,2.646-4.756,4.092-7.059.649-1.036.436-1.459-.576-1.991a33.3,33.3,0,0,0-17.79-3.627q-10.032-.019-20.062-.039c-1.911,0-3.012,1-2.968,2.643.042,1.56,1.155,2.5,3,2.505q4.467.012,8.931-.005c1.755-.005,2.7.641,2.973,2.051.257,1.337-.441,2.368-2.033,3.007q-8.038-.016-16.074-.031-9.008-.008-18.018,0c-1.823.005-2.77.891-2.8,2.511a2.368,2.368,0,0,0,2.555,2.622c7.56.01,15.124-.018,22.684-.034,2.287.008,4.575.005,6.862.029,1.643.016,2.664.641,2.978,1.773.356,1.293-.1,2.246-1.545,3.219-1.815.016-3.627.026-5.442.047-1.682.021-3.373-.034-5.047.1a2.353,2.353,0,0,0-2.2,2.56,2.394,2.394,0,0,0,2.472,2.454c2.287.023,4.577-.021,6.867-.036.644.016,1.288.047,1.932.047,3.17-.008,6.338-.205,9.352,1.218a19.539,19.539,0,0,0,3.731.945h0a54.448,54.448,0,0,0,5.343,1.174c1.976.46,3.9,1.049,5.055,2.936h0c.213,2.023-.179,2.724-2.048,3.658a11.313,11.313,0,0,1-3.666.511,33.1,33.1,0,0,1-6.722-.826,28.073,28.073,0,0,1-8.83-4.1,2,2,0,0,0-1.2-.395c-1.677.036-3.352.042-5.029.057-6.348-.018-12.7-.052-19.047-.039a2.212,2.212,0,0,0-2.277,2.435,2.236,2.236,0,0,0,2.28,2.568c6.608.018,13.215-.021,19.823-.042,1.238.19,2.513-.151,3.739.241a2.374,2.374,0,0,1,1.786,2.534,2.114,2.114,0,0,1-1.794,2.209c-.457.114-.929.177-1.394.26-3.887-.026-7.776-.075-11.663-.068a2.378,2.378,0,0,0-2.646,2.391,2.336,2.336,0,0,0,2.456,2.7c3.876.055,7.758.145,11.634-.034a1.619,1.619,0,0,0,.4-.016H31.4a3.426,3.426,0,0,0,.506.083q8.264.012,16.528.008a3.328,3.328,0,0,0,.73-.166,25.913,25.913,0,0,0,4.344-.444.933.933,0,0,0,.34-.073,8.953,8.953,0,0,0,3.277-.524c8-2.158,11.271-7.693,10.354-15.375Z" transform="translate(181.002 101.848)" fill-rule="evenodd" fill="url(#a)"/></g></svg>