<svg xmlns="http://www.w3.org/2000/svg" xmlns:xlink="http://www.w3.org/1999/xlink" width="59.872" height="40.671" viewBox="0 0 59.872 40.671">
  <defs>
    <clipPath id="clip-path">
      <path id="Path_163888" data-name="Path 163888" d="M41.653,98.194q-8.88-.018-17.76-.034c-1.691,0-2.666.884-2.627,2.339.038,1.38,1.023,2.214,2.655,2.218q3.953.01,7.906,0c1.553,0,2.393.568,2.632,1.817.227,1.184-.39,2.1-1.8,2.662q-7.114-.014-14.229-.027-7.976-.008-15.952,0c-1.614,0-2.453.788-2.478,2.223a2.1,2.1,0,0,0,2.261,2.321c6.694.01,13.387-.016,20.081-.029,2.025.007,4.05.005,6.075.026,1.455.015,2.359.569,2.636,1.571.316,1.145-.088,1.988-1.368,2.85-1.605.014-3.211.023-4.817.041-.416,0-.832,0-1.249,0-1.075,0-2.151,0-3.219.086a2.082,2.082,0,0,0-1.952,2.266,2.118,2.118,0,0,0,2.189,2.171c2.026.02,4.052-.019,6.078-.033.571.014,1.141.042,1.711.041,2.806-.007,5.611-.182,8.28,1.078a17.167,17.167,0,0,0,3.3.836c1.538.523,3.159.673,4.731,1.038,1.75.407,3.452.927,4.474,2.6.189,1.791-.158,2.41-1.813,3.238a10.044,10.044,0,0,1-3.246.452,29.184,29.184,0,0,1-5.951-.732,24.827,24.827,0,0,1-7.816-3.627,1.773,1.773,0,0,0-1.064-.349c-1.484.032-2.968.036-4.453.051-5.621-.015-11.241-.046-16.861-.034a1.96,1.96,0,0,0-2.016,2.156,1.981,1.981,0,0,0,2.018,2.273c5.85.015,11.7-.019,17.549-.036a7.787,7.787,0,0,0,1.393.046,5.686,5.686,0,0,1,1.916.167,2.1,2.1,0,0,1,1.582,2.244,1.871,1.871,0,0,1-1.588,1.955c-.405.1-.822.155-1.234.231-3.441-.023-6.883-.066-10.323-.059a2.1,2.1,0,0,0-2.341,2.116,2.068,2.068,0,0,0,2.175,2.393c1.869.026,3.74.062,5.61.063h.229c1.487,0,2.974-.025,4.461-.094a1.4,1.4,0,0,0,.356-.015h0a2.83,2.83,0,0,0,.449.073q7.316.011,14.631.006a2.949,2.949,0,0,0,.647-.147,22.833,22.833,0,0,0,3.846-.394.793.793,0,0,0,.3-.065,7.9,7.9,0,0,0,2.9-.464c7.086-1.91,9.977-6.81,9.166-13.611A9.238,9.238,0,0,0,56,117.62a17.966,17.966,0,0,0-6.989-3,4.086,4.086,0,0,0-.413-.16c-2.828-.77-5.769-1.074-8.546-2.058a4.121,4.121,0,0,0-.381-.231c-1.415-.67-2.018-1.458-1.916-2.513.113-1.162.954-1.954,2.439-2.359a19.69,19.69,0,0,1,3.05-.226,25.106,25.106,0,0,1,9.618,2.786c.7.351,1.045.247,1.425-.441,1.162-2.109,2.342-4.212,3.622-6.249.575-.916.387-1.293-.51-1.763a28.958,28.958,0,0,0-13.68-3.272q-1.028,0-2.068.061" transform="translate(-0.001 -98.133)" fill="none"/>
    </clipPath>
    <linearGradient id="linear-gradient" x1="0.077" y1="0.835" x2="0.08" y2="0.835" gradientUnits="objectBoundingBox">
      <stop offset="0" stop-color="#20b8cb"/>
      <stop offset="1" stop-color="#1b83b8"/>
    </linearGradient>
    <clipPath id="clip-path-2">
      <path id="Path_163889" data-name="Path 163889" d="M32.181,176.548a1.82,1.82,0,0,0-1.284,1.943,1.94,1.94,0,0,0,1.246,1.985,7.817,7.817,0,0,0,3.28.253c.8,0,1.608.06,2.4-.015a2.026,2.026,0,0,0,1.832-2.017,1.945,1.945,0,0,0-1.365-2.257,15.449,15.449,0,0,0-3.071-.338,10.07,10.07,0,0,0-3.039.445" transform="translate(-30.897 -176.103)" fill="none"/>
    </clipPath>
    <linearGradient id="linear-gradient-2" x1="-0.65" y1="3.092" x2="-0.627" y2="3.092" xlink:href="#linear-gradient"/>
  </defs>
  <g id="Group_51557" data-name="Group 51557" transform="translate(-0.001 -22.556)">
    <g id="Group_51536" data-name="Group 51536" transform="translate(0.001 22.556)">
      <g id="Group_51535" data-name="Group 51535" clip-path="url(#clip-path)">
        <rect id="Rectangle_17323" data-name="Rectangle 17323" width="71.548" height="60.812" transform="matrix(0.923, -0.384, 0.384, 0.923, -14.444, 5.996)" fill="url(#linear-gradient)"/>
      </g>
    </g>
    <g id="Group_51538" data-name="Group 51538" transform="translate(7.102 40.477)">
      <g id="Group_51537" data-name="Group 51537" clip-path="url(#clip-path-2)">
        <rect id="Rectangle_17324" data-name="Rectangle 17324" width="10.003" height="7.845" transform="translate(-1.718 0.712) rotate(-22.58)" fill="url(#linear-gradient-2)"/>
      </g>
    </g>
  </g>
</svg>
