<svg xmlns="http://www.w3.org/2000/svg" width="211.932" height="223.826" viewBox="0 0 211.932 223.826">
    <g id="Group_51882" data-name="Group 51882" transform="translate(-109 -354)">
        <g id="Group_9" data-name="Group 9" transform="translate(109.002 354.001)">
            <g id="Group_1" data-name="Group 1" transform="translate(-0.002 79.859)">
                <path id="Path_1" data-name="Path 1" d="M211.477,190.033a32.706,32.706,0,0,0-13.23-22.912c-7.38-5.565-15.849-8.592-24.742-10.618-.488-.187-.96-.431-1.465-.57-10.016-2.726-20.422-3.8-30.251-7.282a13.515,13.515,0,0,0-1.351-.814c-5.012-2.368-7.144-5.158-6.777-8.893.4-4.109,3.377-6.916,8.633-8.348,3.564-.976,7.209-.391,10.8-.8,12.066.814,23.318,4.483,34.042,9.861,2.473,1.245,3.7.871,5.044-1.562,4.117-7.461,8.291-14.906,12.823-22.122,2.034-3.246,1.367-4.573-1.806-6.24-17.509-9.186-36.157-12.514-55.75-11.366q-31.438-.061-62.869-.122c-5.988,0-9.438,3.124-9.3,8.283.13,4.89,3.621,7.835,9.4,7.851q14,.037,27.989-.016c5.5-.016,8.47,2.01,9.316,6.428.805,4.19-1.383,7.42-6.371,9.422q-25.19-.049-50.371-.1-28.229-.024-56.465,0c-5.712.016-8.681,2.791-8.771,7.868-.089,4.979,2.84,8.209,8.006,8.218,23.693.033,47.394-.057,71.086-.106,7.168.024,14.336.016,21.5.09,5.15.049,8.348,2.01,9.332,5.557,1.115,4.052-.309,7.038-4.841,10.089-5.687.049-11.366.081-17.054.146-5.272.065-10.569-.106-15.817.317-4.41.358-7.062,3.808-6.908,8.022.163,4.507,3.165,7.64,7.746,7.689,7.168.073,14.344-.065,21.52-.114,2.018.049,4.036.146,6.053.146,9.934-.024,19.861-.643,29.307,3.816,3.572,1.684,7.778,2.01,11.692,2.962h0c5.443,1.855,11.179,2.384,16.744,3.678,6.192,1.44,12.221,3.287,15.841,9.2h0c.667,6.338-.561,8.535-6.419,11.464-3.718,1.367-7.591,1.5-11.488,1.6-7.152.2-14.092-1.342-21.065-2.587a87.973,87.973,0,0,1-27.671-12.839A6.26,6.26,0,0,0,103.8,194.1c-5.256.114-10.5.13-15.76.179-19.893-.057-39.794-.163-59.687-.122-4.459,0-7.087,3.075-7.135,7.632-.057,4.833,2.514,8.039,7.144,8.047,20.707.057,41.413-.065,62.12-.13,3.881.594,7.876-.472,11.716.757,3.857,1.237,5.647,3.889,5.6,7.941-.049,3.848-2.042,6.029-5.622,6.924-1.432.358-2.913.553-4.369.814-12.18-.081-24.368-.236-36.548-.212-5.126.008-8.063,2.856-8.291,7.493-.236,4.971,2.457,8.4,7.7,8.47,12.147.171,24.311.456,36.458-.106a5.074,5.074,0,0,0,1.261-.049H98.4a10.751,10.751,0,0,0,1.587.26q25.9.037,51.8.024a10.425,10.425,0,0,0,2.286-.521,81.2,81.2,0,0,0,13.612-1.391,2.923,2.923,0,0,0,1.066-.228c3.572.374,6.916-.74,10.268-1.644,25.084-6.761,35.319-24.108,32.447-48.183Z" transform="translate(0.002 -98.152)" fill="#fff" fill-rule="evenodd"/>
                <path id="Path_2" data-name="Path 2" d="M46.918,192.48c2.84,0,5.687.212,8.5-.049,3.71-.35,6.265-3.246,6.485-7.135.212-3.718-1.163-7.241-4.833-7.99-7.144-1.448-14.483-1.863-21.634.374-3.246,1.017-4.516,3.515-4.548,6.883s1.326,5.7,4.41,7.03c3.751,1.6,7.721.936,11.61.895Z" transform="translate(-5.755 -112.682)" fill="#fff" fill-rule="evenodd"/>
            </g>
            <g id="Group_2" data-name="Group 2" transform="translate(85.934 -0.001)">
                <path id="Path_3" data-name="Path 3" d="M152.533,18.485c-1.3-3.474-2.425-7.022-3.629-10.545a3.262,3.262,0,0,0-3.352-2.425c-.846,0-1.692.008-2.53,0-.415,0-.985.179-1.188-.073-.228-.285.016-.822.1-1.237A3.427,3.427,0,0,0,138.4,0c-3.987.089-7.982.024-11.968.024h-1.961q-5.236,0-10.471.008a1.611,1.611,0,0,0-1.757,1.806,1.657,1.657,0,0,0,1.741,1.489c.895.016,1.79-.016,2.685,0a1.6,1.6,0,0,1,1.595,1.709A1.677,1.677,0,0,1,116.4,6.623h-8.868a2.126,2.126,0,0,0-.814.089,1.68,1.68,0,0,0-1.074,1.855,1.6,1.6,0,0,0,1.611,1.318c1.806,0,3.612-.016,5.419,0a1.651,1.651,0,1,1-.041,3.3h-3.149a1.614,1.614,0,0,0-1.668,1.595,1.66,1.66,0,0,0,1.619,1.668c.342.016.683,0,1.033,0a1.655,1.655,0,1,1-.016,3.3h-2.986a1.66,1.66,0,1,0,.016,3.3h5.264a1.648,1.648,0,1,1-.008,3.3c-.708,0-1.408-.008-2.115,0a1.648,1.648,0,1,0-.024,3.3c1.9.008,3.775,0,5.671.008.317,0,.4-.09.439-.391a6.045,6.045,0,0,1,11.936-.041c.049.374.171.439.513.439,1.546-.016,3.092-.024,4.638,0,.374,0,.48-.1.537-.456a5.781,5.781,0,0,1,2.831-4.206,6.021,6.021,0,0,1,9.08,4.239c.065.334.146.439.5.423.789-.033,1.578-.008,2.376-.008a2.257,2.257,0,0,0,2.441-2.018c.325-1.66.651-3.328,1-4.988a7.027,7.027,0,0,0-.049-4.174Zm-7.412.163c-1.521,0-3.051,0-4.581.008-.374.008-.472-.081-.415-.447.334-2.408.651-4.825.976-7.241.081-.61.187-1.229.244-1.839.024-.277.089-.391.4-.391,1.164.016,2.335.016,3.507.008a.685.685,0,0,1,.732.513q1.526,4.6,3.051,9.21c.016.049,0,.1.024.179h-3.93Z" transform="translate(-105.619 0.001)" fill="#fff" fill-rule="evenodd"/>
                <path id="Path_4" data-name="Path 4" d="M125.606,31.25a4.432,4.432,0,1,0,.008,0Z" transform="translate(-108.519 -5.824)" fill="#fff" fill-rule="evenodd"/>
                <path id="Path_5" data-name="Path 5" d="M151.633,35.847a4.407,4.407,0,1,1-8.8-.033,4.405,4.405,0,1,1,8.8.024Z" transform="translate(-112.554 -5.824)" fill="#fff" fill-rule="evenodd"/>
            </g>
            <g id="Group_3" data-name="Group 3" transform="translate(157.078 36.556)">
                <path id="Path_6" data-name="Path 6" d="M244.8,57.02c-2.1-2.742-4.2-5.476-6.273-8.226a1.08,1.08,0,0,0-.976-.472c-2.229.016-4.467,0-6.7.016-.374,0-.456-.1-.439-.447.033-.757.016-1.505,0-2.262,0-.521-.179-.7-.692-.7H211.1c-.537,0-.7.179-.708.732v2.36a.839.839,0,0,1-.928.96h-.285a.509.509,0,0,0-.5.537.489.489,0,0,0,.5.529,5.432,5.432,0,0,0,.814,0c.3-.024.423.049.415.382-.024.96-.024,1.928,0,2.888.008.334-.114.382-.407.382-.928-.016-1.863,0-2.791-.008-.4,0-.716.073-.757.537-.033.358.228.545.732.545.96,0,1.928.008,2.888,0,.252,0,.325.065.325.325-.016.993-.016,1.993,0,2.986,0,.277-.081.342-.35.342-.83-.016-1.668,0-2.506-.008-.4,0-.683.155-.675.57,0,.391.285.529.659.529.74-.008,1.473,0,2.213,0q.643,0,.643.618v4.914c0,.618.171.789.806.789,1.123,0,2.246.016,3.368,0,.3,0,.431.057.513.374a3.737,3.737,0,0,0,7.258-.041c.065-.244.146-.334.415-.334,3.547.008,7.095,0,10.642,0a.342.342,0,0,1,.4.293,3.734,3.734,0,0,0,7.274.033c.073-.285.2-.325.456-.317.862.008,1.733,0,2.6.008a.8.8,0,0,0,.765-.391v-8.38a.549.549,0,0,1-.073-.049ZM218.678,67.939a2.638,2.638,0,0,1-2.612-2.693,2.6,2.6,0,0,1,2.628-2.612,2.637,2.637,0,0,1,2.652,2.652,2.667,2.667,0,0,1-2.677,2.644Zm10.65-11.2c0,2.522-.033,5.036-.024,7.55,0,.366-.1.456-.456.447q-3.014-.024-6.013,0c-.309,0-.431-.081-.513-.4a3.727,3.727,0,0,0-7.209-.073c-.106.4-.26.488-.643.472-.862-.033-1.733-.016-2.6,0-.285,0-.391-.065-.391-.374.016-1.489.016-2.986,0-4.475,0-.285.065-.4.374-.382.513.024,1.025.008,1.538,0,.488,0,.773-.2.732-.553-.041-.447-.358-.553-.757-.537-.529.016-1.058,0-1.587.008-.236,0-.3-.073-.3-.3.008-.993.008-1.985,0-2.986,0-.269.065-.374.35-.358.448.024.9,0,1.351,0,.358,0,.6-.146.61-.529,0-.4-.244-.561-.626-.553h-1.391c-.2,0-.277-.057-.277-.268.008-1.025.016-2.058,0-3.084,0-.285.138-.3.358-.293h3.661c.578,0,.846-.179.838-.553s-.277-.529-.862-.537c-1.2,0-2.408-.016-3.612.008-.35,0-.391-.13-.382-.423.016-.708.024-1.416,0-2.115-.016-.366.1-.447.456-.447,2.823.016,5.647.008,8.478.008s5.647,0,8.47-.008c.35,0,.464.073.456.447-.016,3.433,0,6.867-.008,10.3Zm1.09-6.916c0-.334.106-.382.407-.382q3.222.012,6.444,0a.583.583,0,0,1,.537.228q2.648,3.478,5.3,6.956a.492.492,0,0,1,.033.155h-6.232q-3.027,0-6.061.008c-.325,0-.431-.065-.431-.415q.024-3.271,0-6.542ZM237.4,67.947a2.652,2.652,0,0,1,.024-5.3,2.609,2.609,0,0,1,2.636,2.652,2.643,2.643,0,0,1-2.661,2.644Zm6.4-7.347c0,.269-.065.374-.35.358a9.173,9.173,0,0,0-1.058,0c-.342.016-.594.163-.6.545s.244.537.586.561c.366.016.74.016,1.107,0,.22,0,.309.057.309.3-.016.692-.016,1.383,0,2.067,0,.268-.106.325-.342.317-.643-.016-1.286-.024-1.92,0-.3.008-.4-.1-.48-.374a3.609,3.609,0,0,0-3.124-2.791,3.693,3.693,0,0,0-4.1,2.717c-.1.382-.26.464-.61.456-.814-.024-1.635-.016-2.457,0-.252,0-.334-.065-.334-.317.008-2.083.016-4.174,0-6.257,0-.325.155-.309.382-.309h6.306c2.1,0,4.141.008,6.208-.008.391,0,.48.122.464.488-.024.749-.016,1.505,0,2.262Z" transform="translate(-195.555 -44.93)" fill="#fff" fill-rule="evenodd"/>
                <path id="Path_7" data-name="Path 7" d="M193.068,61.8a1.158,1.158,0,0,1,.854-.293c2.628.016,5.264,0,7.892.008a1.521,1.521,0,0,1,.431.024.513.513,0,0,1,.4.578.494.494,0,0,1-.464.48,2.284,2.284,0,0,1-.334.008h-7.99a.915.915,0,0,1-.8-.325V61.8Z" transform="translate(-193.06 -48.02)" fill="#fff" fill-rule="evenodd"/>
                <path id="Path_8" data-name="Path 8" d="M199.016,50.99h-4.044c-.391,0-.732-.065-.732-.537s.334-.553.732-.553h8.087c.391,0,.732.073.74.545s-.342.545-.732.545h-4.044Z" transform="translate(-193.28 -45.856)" fill="#fff" fill-rule="evenodd"/>
                <path id="Path_9" data-name="Path 9" d="M199.694,55.708h1.587c.374,0,.643.146.659.529s-.244.553-.635.553h-3.271c-.382,0-.635-.146-.635-.553s.277-.545.651-.537h1.635Z" transform="translate(-193.869 -46.937)" fill="#fff" fill-rule="evenodd"/>
            </g>
            <g id="Group_4" data-name="Group 4" transform="translate(20.533 36.238)">
                <path id="Path_10" data-name="Path 10" d="M25.54,64.628a.293.293,0,0,0,.187-.008A5.342,5.342,0,0,1,27.5,63.009c.163-.114.35-.187.553-.309a4.73,4.73,0,0,0-.48.854,3.156,3.156,0,0,0-.114.366c-.049.26-.1.521-.163.781a1.269,1.269,0,0,0,0,.553c.073.26.1.521.163.781a2.5,2.5,0,0,1,.22.529,3.829,3.829,0,0,0,.594,1.009c.163.155.317.325.488.48a4.3,4.3,0,0,0,1.936.862.823.823,0,0,0,.138.024,5.319,5.319,0,0,0,1.342-.073,4.155,4.155,0,0,0,2.84-2.376,7.231,7.231,0,0,0,.244-1.025,3.958,3.958,0,0,0-.016-1.074,5.111,5.111,0,0,0-.317-1.131c.325.269.529.5.757.724a.605.605,0,0,0,.529.236,3.821,3.821,0,0,0,1.033-.325,1.781,1.781,0,0,0,.407-.293,3.053,3.053,0,0,0,.635-.805,1.482,1.482,0,0,0,.122-.22,7.182,7.182,0,0,0,.244-.814,2.354,2.354,0,0,0-.081-1.09,2.746,2.746,0,0,0-1.163-1.684c-.024-.008.073-.041.033,0-.016.008,0,.024.024.033a2.976,2.976,0,0,1,2.148,2.742,1.625,1.625,0,0,1,0,.74A4.347,4.347,0,0,1,39.3,63.66a.742.742,0,0,0-.057.114,2.292,2.292,0,0,1-1.635,1.4c-.447.033-.626.309-.675.716a1.24,1.24,0,0,0,.065.667c.081.179.146.382.366.447.024.033.057.057.081.09.146.285.439.342.692.447a9.283,9.283,0,0,0,1.066.024c2.124,0,4.247-.024,6.363.016.773.016,1.546.033,2.311.081a3.555,3.555,0,0,0,1.953-.456,2.005,2.005,0,0,0,.594-.415c.228-.228.4-.212.561.089a4.033,4.033,0,0,0,1.155,1.3c.171.106.358.171.529.293a3.561,3.561,0,0,0,.4.187,1.844,1.844,0,0,0,.724.2,4.369,4.369,0,0,0,2.164-.26c.122-.041.187-.146.293-.212l.692-.447c.236-.041.334-.252.5-.382.187-.187.277-.439.447-.626a3.2,3.2,0,0,0,.212-.407,3.766,3.766,0,0,0,.171-2.774,4.979,4.979,0,0,0-.293-.675c-.089-.22-.016-.293.2-.293.3,0,.659.041.789-.309s-.138-.626-.358-.83a5.354,5.354,0,0,0-1.757-1.3c-.285-.179-.57-.358-.846-.537a.4.4,0,0,0-.171-.2,8.591,8.591,0,0,0-1.212-.635.484.484,0,0,1-.342-.521,2.176,2.176,0,0,0-.073-.683,10.923,10.923,0,0,0-.553-1.749,7.715,7.715,0,0,0-.6-1.074c-.049-.065-.09-.13-.13-.2a4.828,4.828,0,0,0-.513-.7c-.155-.146-.3-.293-.447-.447a2.955,2.955,0,0,0-.749-.635h0a.57.57,0,0,0-.171-.171c-.317-.171-.57-.488-.984-.48a.191.191,0,0,1-.2-.179.551.551,0,0,1,.2-.407c.114-.106.228-.073.35.016a1.884,1.884,0,0,0,.854.472c.228-.073.277-.285.35-.472.122-.513.114-1.041.212-1.554a2.564,2.564,0,0,0-.073-1.139c-.09-.366-.252-.431-.618-.269-.089.073-.163.163-.244.244a.787.787,0,0,1-.952.293,2.491,2.491,0,0,0-1.44-.106.153.153,0,0,1-.155-.057,6.521,6.521,0,0,0-.667-2.05c-.033-.057-.065-.106-.1-.163-.155-.179-.236-.439-.521-.48-.187-.1-.4-.171-.415-.431a1.328,1.328,0,0,0-.277-.887,2.023,2.023,0,0,0-.334-.407c-.171-.065-.317-.382-.537-.065-.073,1.115-.024,2.229-.024,3.344a.45.45,0,0,0,.073.244c.179.155.317.016.464-.073a1.03,1.03,0,0,0,.171-.2,1.907,1.907,0,0,0,.268-.488c.041-.09.041-.228.155-.236.13-.016.179.122.236.22a3.955,3.955,0,0,1,.537,1.53,1.647,1.647,0,0,0,.033.212,1.1,1.1,0,0,1,.016.74c-.13.171-.3.309-.431.48s-.2.407-.472.415c-.431,0-.854-.016-1.286,0-.773.024-.944.293-.683,1.041.106.146.252.138.407.138a.822.822,0,0,0,.138-.024,6.024,6.024,0,0,1,1.269-.033c.3,0,.464.244.683.4.187.163.236.423.391.61.155.309.334.61.472.936a16.82,16.82,0,0,1,.8,1.945,5.509,5.509,0,0,1,.317,1.082,6.212,6.212,0,0,1-.374,4.776,3.592,3.592,0,0,1-.5.83.332.332,0,0,0-.057.228.809.809,0,0,0-.081.09,2.244,2.244,0,0,0-.781.781c-.016.049-.033.081-.089.081a11.248,11.248,0,0,1-3.539.187,4.532,4.532,0,0,1-1.432-.675,5.075,5.075,0,0,1-.643-.48c-.016-.024-.041-.041-.057-.065a.5.5,0,0,0-.163-.244,1.9,1.9,0,0,1-.513-1.92,3.708,3.708,0,0,1,.936-1.489,3.929,3.929,0,0,0,.586-.635c.2-.317.114-.48-.244-.521a3.814,3.814,0,0,0-.431,0H34.71a2.127,2.127,0,0,1-.6-.041,7.013,7.013,0,0,1-.822-.171,8.7,8.7,0,0,1-.911-.212,6.3,6.3,0,0,1-.765-.22,5.034,5.034,0,0,1-.626-.155,2.22,2.22,0,0,0-2.392.325c-.342.024-.692.041-1.041.065-.342-.1-.537.138-.716.35a2.046,2.046,0,0,0-.423.838v.041c-.138.814-.065.887.765.838-.228.342-.407.683-.61,1.009-.041.073-.081.138-.114.212-.146.268-.033.447.179.618.553.448.545.456-.041.895a.862.862,0,0,0-.1.081,1.018,1.018,0,0,0-.268.391,3.37,3.37,0,0,0-.635.683,2.148,2.148,0,0,0-.22.374c-.2.545-.2.586.179.83Zm27.867.952a1.444,1.444,0,1,1,1.448,1.448A1.446,1.446,0,0,1,53.407,65.58Zm-23.571,0a1.444,1.444,0,1,1,1.44,1.448,1.445,1.445,0,0,1-1.44-1.448Z" transform="translate(-25.237 -44.539)" fill="#fff" fill-rule="evenodd"/>
                <path id="Path_11" data-name="Path 11" d="M38.39,55.726c-.081,0-.171,0-.252.008a15.065,15.065,0,0,0-1.717-.057c-.431,0-.846.089-1.277.122a7.738,7.738,0,0,1-.968.155,5.89,5.89,0,0,0-1.676.635,6,6,0,0,0-1.879,1.334c-.1.114-.252.2-.212.391.3.212.675.106,1,.2a3.123,3.123,0,0,1,.9.22,7.265,7.265,0,0,1,.83.2,1.386,1.386,0,0,1,.317.073A7.572,7.572,0,0,0,34.5,59.3c.309.049.626.089.928.163.846.057,1.7.033,2.547.024,1.644,0,3.279.016,4.922-.008a1.79,1.79,0,0,1,.8.155c.138.065.293.171.4-.057a7.355,7.355,0,0,0,.033-2.669,1.039,1.039,0,0,0-.805-.96c-.439-.1-.887-.171-1.326-.236a2.754,2.754,0,0,0-.521-.041,9.472,9.472,0,0,1-1.44-.049.752.752,0,0,0-.236-.033c-.334,0-.659-.016-.984-.008a.547.547,0,0,0-.439.13Z" transform="translate(-26.199 -46.597)" fill="#fff" fill-rule="evenodd"/>
            </g>
        </g>
    </g>
    <g id="Group_51883" data-name="Group 51883" transform="translate(-109 -354)">
        <g id="Group_9-2" data-name="Group 9" transform="translate(109.002 354.001)">
            <g id="Group_1-2" data-name="Group 1" transform="translate(-0.002 79.859)">
                <path id="Path_1-2" data-name="Path 1" d="M211.477,190.033a32.706,32.706,0,0,0-13.23-22.912c-7.38-5.565-15.849-8.592-24.742-10.618-.488-.187-.96-.431-1.465-.57-10.016-2.726-20.422-3.8-30.251-7.282a13.515,13.515,0,0,0-1.351-.814c-5.012-2.368-7.144-5.158-6.777-8.893.4-4.109,3.377-6.916,8.633-8.348,3.564-.976,7.209-.391,10.8-.8,12.066.814,23.318,4.483,34.042,9.861,2.473,1.245,3.7.871,5.044-1.562,4.117-7.461,8.291-14.906,12.823-22.122,2.034-3.246,1.367-4.573-1.806-6.24-17.509-9.186-36.157-12.514-55.75-11.366q-31.438-.061-62.869-.122c-5.988,0-9.438,3.124-9.3,8.283.13,4.89,3.621,7.835,9.4,7.851q14,.037,27.989-.016c5.5-.016,8.47,2.01,9.316,6.428.805,4.19-1.383,7.42-6.371,9.422q-25.19-.049-50.371-.1-28.229-.024-56.465,0c-5.712.016-8.681,2.791-8.771,7.868-.089,4.979,2.84,8.209,8.006,8.218,23.693.033,47.394-.057,71.086-.106,7.168.024,14.336.016,21.5.09,5.15.049,8.348,2.01,9.332,5.557,1.115,4.052-.309,7.038-4.841,10.089-5.687.049-11.366.081-17.054.146-5.272.065-10.569-.106-15.817.317-4.41.358-7.062,3.808-6.908,8.022.163,4.507,3.165,7.64,7.746,7.689,7.168.073,14.344-.065,21.52-.114,2.018.049,4.036.146,6.053.146,9.934-.024,19.861-.643,29.307,3.816,3.572,1.684,7.778,2.01,11.692,2.962h0c5.443,1.855,11.179,2.384,16.744,3.678,6.192,1.44,12.221,3.287,15.841,9.2h0c.667,6.338-.561,8.535-6.419,11.464-3.718,1.367-7.591,1.5-11.488,1.6-7.152.2-14.092-1.342-21.065-2.587a87.973,87.973,0,0,1-27.671-12.839A6.26,6.26,0,0,0,103.8,194.1c-5.256.114-10.5.13-15.76.179-19.893-.057-39.794-.163-59.687-.122-4.459,0-7.087,3.075-7.135,7.632-.057,4.833,2.514,8.039,7.144,8.047,20.707.057,41.413-.065,62.12-.13,3.881.594,7.876-.472,11.716.757,3.857,1.237,5.647,3.889,5.6,7.941-.049,3.848-2.042,6.029-5.622,6.924-1.432.358-2.913.553-4.369.814-12.18-.081-24.368-.236-36.548-.212-5.126.008-8.063,2.856-8.291,7.493-.236,4.971,2.457,8.4,7.7,8.47,12.147.171,24.311.456,36.458-.106a5.074,5.074,0,0,0,1.261-.049H98.4a10.751,10.751,0,0,0,1.587.26q25.9.037,51.8.024a10.425,10.425,0,0,0,2.286-.521,81.2,81.2,0,0,0,13.612-1.391,2.923,2.923,0,0,0,1.066-.228c3.572.374,6.916-.74,10.268-1.644,25.084-6.761,35.319-24.108,32.447-48.183Z" transform="translate(0.002 -98.152)" fill="#fff" fill-rule="evenodd"/>
                <path id="Path_2-2" data-name="Path 2" d="M46.918,192.48c2.84,0,5.687.212,8.5-.049,3.71-.35,6.265-3.246,6.485-7.135.212-3.718-1.163-7.241-4.833-7.99-7.144-1.448-14.483-1.863-21.634.374-3.246,1.017-4.516,3.515-4.548,6.883s1.326,5.7,4.41,7.03c3.751,1.6,7.721.936,11.61.895Z" transform="translate(-5.755 -112.682)" fill="#fff" fill-rule="evenodd"/>
            </g>
            <g id="Group_2-2" data-name="Group 2" transform="translate(85.934 -0.001)">
                <path id="Path_3-2" data-name="Path 3" d="M152.533,18.485c-1.3-3.474-2.425-7.022-3.629-10.545a3.262,3.262,0,0,0-3.352-2.425c-.846,0-1.692.008-2.53,0-.415,0-.985.179-1.188-.073-.228-.285.016-.822.1-1.237A3.427,3.427,0,0,0,138.4,0c-3.987.089-7.982.024-11.968.024h-1.961q-5.236,0-10.471.008a1.611,1.611,0,0,0-1.757,1.806,1.657,1.657,0,0,0,1.741,1.489c.895.016,1.79-.016,2.685,0a1.6,1.6,0,0,1,1.595,1.709A1.677,1.677,0,0,1,116.4,6.623h-8.868a2.126,2.126,0,0,0-.814.089,1.68,1.68,0,0,0-1.074,1.855,1.6,1.6,0,0,0,1.611,1.318c1.806,0,3.612-.016,5.419,0a1.651,1.651,0,1,1-.041,3.3h-3.149a1.614,1.614,0,0,0-1.668,1.595,1.66,1.66,0,0,0,1.619,1.668c.342.016.683,0,1.033,0a1.655,1.655,0,1,1-.016,3.3h-2.986a1.66,1.66,0,1,0,.016,3.3h5.264a1.648,1.648,0,1,1-.008,3.3c-.708,0-1.408-.008-2.115,0a1.648,1.648,0,1,0-.024,3.3c1.9.008,3.775,0,5.671.008.317,0,.4-.09.439-.391a6.045,6.045,0,0,1,11.936-.041c.049.374.171.439.513.439,1.546-.016,3.092-.024,4.638,0,.374,0,.48-.1.537-.456a5.781,5.781,0,0,1,2.831-4.206,6.021,6.021,0,0,1,9.08,4.239c.065.334.146.439.5.423.789-.033,1.578-.008,2.376-.008a2.257,2.257,0,0,0,2.441-2.018c.325-1.66.651-3.328,1-4.988a7.027,7.027,0,0,0-.049-4.174Zm-7.412.163c-1.521,0-3.051,0-4.581.008-.374.008-.472-.081-.415-.447.334-2.408.651-4.825.976-7.241.081-.61.187-1.229.244-1.839.024-.277.089-.391.4-.391,1.164.016,2.335.016,3.507.008a.685.685,0,0,1,.732.513q1.526,4.6,3.051,9.21c.016.049,0,.1.024.179h-3.93Z" transform="translate(-105.619 0.001)" fill="#fff" fill-rule="evenodd"/>
                <path id="Path_4-2" data-name="Path 4" d="M125.606,31.25a4.432,4.432,0,1,0,.008,0Z" transform="translate(-108.519 -5.824)" fill="#fff" fill-rule="evenodd"/>
                <path id="Path_5-2" data-name="Path 5" d="M151.633,35.847a4.407,4.407,0,1,1-8.8-.033,4.405,4.405,0,1,1,8.8.024Z" transform="translate(-112.554 -5.824)" fill="#fff" fill-rule="evenodd"/>
            </g>
            <g id="Group_3-2" data-name="Group 3" transform="translate(157.078 36.556)">
                <path id="Path_6-2" data-name="Path 6" d="M244.8,57.02c-2.1-2.742-4.2-5.476-6.273-8.226a1.08,1.08,0,0,0-.976-.472c-2.229.016-4.467,0-6.7.016-.374,0-.456-.1-.439-.447.033-.757.016-1.505,0-2.262,0-.521-.179-.7-.692-.7H211.1c-.537,0-.7.179-.708.732v2.36a.839.839,0,0,1-.928.96h-.285a.509.509,0,0,0-.5.537.489.489,0,0,0,.5.529,5.432,5.432,0,0,0,.814,0c.3-.024.423.049.415.382-.024.96-.024,1.928,0,2.888.008.334-.114.382-.407.382-.928-.016-1.863,0-2.791-.008-.4,0-.716.073-.757.537-.033.358.228.545.732.545.96,0,1.928.008,2.888,0,.252,0,.325.065.325.325-.016.993-.016,1.993,0,2.986,0,.277-.081.342-.35.342-.83-.016-1.668,0-2.506-.008-.4,0-.683.155-.675.57,0,.391.285.529.659.529.74-.008,1.473,0,2.213,0q.643,0,.643.618v4.914c0,.618.171.789.806.789,1.123,0,2.246.016,3.368,0,.3,0,.431.057.513.374a3.737,3.737,0,0,0,7.258-.041c.065-.244.146-.334.415-.334,3.547.008,7.095,0,10.642,0a.342.342,0,0,1,.4.293,3.734,3.734,0,0,0,7.274.033c.073-.285.2-.325.456-.317.862.008,1.733,0,2.6.008a.8.8,0,0,0,.765-.391v-8.38a.549.549,0,0,1-.073-.049ZM218.678,67.939a2.638,2.638,0,0,1-2.612-2.693,2.6,2.6,0,0,1,2.628-2.612,2.637,2.637,0,0,1,2.652,2.652,2.667,2.667,0,0,1-2.677,2.644Zm10.65-11.2c0,2.522-.033,5.036-.024,7.55,0,.366-.1.456-.456.447q-3.014-.024-6.013,0c-.309,0-.431-.081-.513-.4a3.727,3.727,0,0,0-7.209-.073c-.106.4-.26.488-.643.472-.862-.033-1.733-.016-2.6,0-.285,0-.391-.065-.391-.374.016-1.489.016-2.986,0-4.475,0-.285.065-.4.374-.382.513.024,1.025.008,1.538,0,.488,0,.773-.2.732-.553-.041-.447-.358-.553-.757-.537-.529.016-1.058,0-1.587.008-.236,0-.3-.073-.3-.3.008-.993.008-1.985,0-2.986,0-.269.065-.374.35-.358.448.024.9,0,1.351,0,.358,0,.6-.146.61-.529,0-.4-.244-.561-.626-.553h-1.391c-.2,0-.277-.057-.277-.268.008-1.025.016-2.058,0-3.084,0-.285.138-.3.358-.293h3.661c.578,0,.846-.179.838-.553s-.277-.529-.862-.537c-1.2,0-2.408-.016-3.612.008-.35,0-.391-.13-.382-.423.016-.708.024-1.416,0-2.115-.016-.366.1-.447.456-.447,2.823.016,5.647.008,8.478.008s5.647,0,8.47-.008c.35,0,.464.073.456.447-.016,3.433,0,6.867-.008,10.3Zm1.09-6.916c0-.334.106-.382.407-.382q3.222.012,6.444,0a.583.583,0,0,1,.537.228q2.648,3.478,5.3,6.956a.492.492,0,0,1,.033.155h-6.232q-3.027,0-6.061.008c-.325,0-.431-.065-.431-.415q.024-3.271,0-6.542ZM237.4,67.947a2.652,2.652,0,0,1,.024-5.3,2.609,2.609,0,0,1,2.636,2.652,2.643,2.643,0,0,1-2.661,2.644Zm6.4-7.347c0,.269-.065.374-.35.358a9.173,9.173,0,0,0-1.058,0c-.342.016-.594.163-.6.545s.244.537.586.561c.366.016.74.016,1.107,0,.22,0,.309.057.309.3-.016.692-.016,1.383,0,2.067,0,.268-.106.325-.342.317-.643-.016-1.286-.024-1.92,0-.3.008-.4-.1-.48-.374a3.609,3.609,0,0,0-3.124-2.791,3.693,3.693,0,0,0-4.1,2.717c-.1.382-.26.464-.61.456-.814-.024-1.635-.016-2.457,0-.252,0-.334-.065-.334-.317.008-2.083.016-4.174,0-6.257,0-.325.155-.309.382-.309h6.306c2.1,0,4.141.008,6.208-.008.391,0,.48.122.464.488-.024.749-.016,1.505,0,2.262Z" transform="translate(-195.555 -44.93)" fill="#fff" fill-rule="evenodd"/>
                <path id="Path_7-2" data-name="Path 7" d="M193.068,61.8a1.158,1.158,0,0,1,.854-.293c2.628.016,5.264,0,7.892.008a1.521,1.521,0,0,1,.431.024.513.513,0,0,1,.4.578.494.494,0,0,1-.464.48,2.284,2.284,0,0,1-.334.008h-7.99a.915.915,0,0,1-.8-.325V61.8Z" transform="translate(-193.06 -48.02)" fill="#fff" fill-rule="evenodd"/>
                <path id="Path_8-2" data-name="Path 8" d="M199.016,50.99h-4.044c-.391,0-.732-.065-.732-.537s.334-.553.732-.553h8.087c.391,0,.732.073.74.545s-.342.545-.732.545h-4.044Z" transform="translate(-193.28 -45.856)" fill="#fff" fill-rule="evenodd"/>
                <path id="Path_9-2" data-name="Path 9" d="M199.694,55.708h1.587c.374,0,.643.146.659.529s-.244.553-.635.553h-3.271c-.382,0-.635-.146-.635-.553s.277-.545.651-.537h1.635Z" transform="translate(-193.869 -46.937)" fill="#fff" fill-rule="evenodd"/>
            </g>
            <g id="Group_4-2" data-name="Group 4" transform="translate(20.533 36.238)">
                <path id="Path_10-2" data-name="Path 10" d="M25.54,64.628a.293.293,0,0,0,.187-.008A5.342,5.342,0,0,1,27.5,63.009c.163-.114.35-.187.553-.309a4.73,4.73,0,0,0-.48.854,3.156,3.156,0,0,0-.114.366c-.049.26-.1.521-.163.781a1.269,1.269,0,0,0,0,.553c.073.26.1.521.163.781a2.5,2.5,0,0,1,.22.529,3.829,3.829,0,0,0,.594,1.009c.163.155.317.325.488.48a4.3,4.3,0,0,0,1.936.862.823.823,0,0,0,.138.024,5.319,5.319,0,0,0,1.342-.073,4.155,4.155,0,0,0,2.84-2.376,7.231,7.231,0,0,0,.244-1.025,3.958,3.958,0,0,0-.016-1.074,5.111,5.111,0,0,0-.317-1.131c.325.269.529.5.757.724a.605.605,0,0,0,.529.236,3.821,3.821,0,0,0,1.033-.325,1.781,1.781,0,0,0,.407-.293,3.053,3.053,0,0,0,.635-.805,1.482,1.482,0,0,0,.122-.22,7.182,7.182,0,0,0,.244-.814,2.354,2.354,0,0,0-.081-1.09,2.746,2.746,0,0,0-1.163-1.684c-.024-.008.073-.041.033,0-.016.008,0,.024.024.033a2.976,2.976,0,0,1,2.148,2.742,1.625,1.625,0,0,1,0,.74A4.347,4.347,0,0,1,39.3,63.66a.742.742,0,0,0-.057.114,2.292,2.292,0,0,1-1.635,1.4c-.447.033-.626.309-.675.716a1.24,1.24,0,0,0,.065.667c.081.179.146.382.366.447.024.033.057.057.081.09.146.285.439.342.692.447a9.283,9.283,0,0,0,1.066.024c2.124,0,4.247-.024,6.363.016.773.016,1.546.033,2.311.081a3.555,3.555,0,0,0,1.953-.456,2.005,2.005,0,0,0,.594-.415c.228-.228.4-.212.561.089a4.033,4.033,0,0,0,1.155,1.3c.171.106.358.171.529.293a3.561,3.561,0,0,0,.4.187,1.844,1.844,0,0,0,.724.2,4.369,4.369,0,0,0,2.164-.26c.122-.041.187-.146.293-.212l.692-.447c.236-.041.334-.252.5-.382.187-.187.277-.439.447-.626a3.2,3.2,0,0,0,.212-.407,3.766,3.766,0,0,0,.171-2.774,4.979,4.979,0,0,0-.293-.675c-.089-.22-.016-.293.2-.293.3,0,.659.041.789-.309s-.138-.626-.358-.83a5.354,5.354,0,0,0-1.757-1.3c-.285-.179-.57-.358-.846-.537a.4.4,0,0,0-.171-.2,8.591,8.591,0,0,0-1.212-.635.484.484,0,0,1-.342-.521,2.176,2.176,0,0,0-.073-.683,10.923,10.923,0,0,0-.553-1.749,7.715,7.715,0,0,0-.6-1.074c-.049-.065-.09-.13-.13-.2a4.828,4.828,0,0,0-.513-.7c-.155-.146-.3-.293-.447-.447a2.955,2.955,0,0,0-.749-.635h0a.57.57,0,0,0-.171-.171c-.317-.171-.57-.488-.984-.48a.191.191,0,0,1-.2-.179.551.551,0,0,1,.2-.407c.114-.106.228-.073.35.016a1.884,1.884,0,0,0,.854.472c.228-.073.277-.285.35-.472.122-.513.114-1.041.212-1.554a2.564,2.564,0,0,0-.073-1.139c-.09-.366-.252-.431-.618-.269-.089.073-.163.163-.244.244a.787.787,0,0,1-.952.293,2.491,2.491,0,0,0-1.44-.106.153.153,0,0,1-.155-.057,6.521,6.521,0,0,0-.667-2.05c-.033-.057-.065-.106-.1-.163-.155-.179-.236-.439-.521-.48-.187-.1-.4-.171-.415-.431a1.328,1.328,0,0,0-.277-.887,2.023,2.023,0,0,0-.334-.407c-.171-.065-.317-.382-.537-.065-.073,1.115-.024,2.229-.024,3.344a.45.45,0,0,0,.073.244c.179.155.317.016.464-.073a1.03,1.03,0,0,0,.171-.2,1.907,1.907,0,0,0,.268-.488c.041-.09.041-.228.155-.236.13-.016.179.122.236.22a3.955,3.955,0,0,1,.537,1.53,1.647,1.647,0,0,0,.033.212,1.1,1.1,0,0,1,.016.74c-.13.171-.3.309-.431.48s-.2.407-.472.415c-.431,0-.854-.016-1.286,0-.773.024-.944.293-.683,1.041.106.146.252.138.407.138a.822.822,0,0,0,.138-.024,6.024,6.024,0,0,1,1.269-.033c.3,0,.464.244.683.4.187.163.236.423.391.61.155.309.334.61.472.936a16.82,16.82,0,0,1,.8,1.945,5.509,5.509,0,0,1,.317,1.082,6.212,6.212,0,0,1-.374,4.776,3.592,3.592,0,0,1-.5.83.332.332,0,0,0-.057.228.809.809,0,0,0-.081.09,2.244,2.244,0,0,0-.781.781c-.016.049-.033.081-.089.081a11.248,11.248,0,0,1-3.539.187,4.532,4.532,0,0,1-1.432-.675,5.075,5.075,0,0,1-.643-.48c-.016-.024-.041-.041-.057-.065a.5.5,0,0,0-.163-.244,1.9,1.9,0,0,1-.513-1.92,3.708,3.708,0,0,1,.936-1.489,3.929,3.929,0,0,0,.586-.635c.2-.317.114-.48-.244-.521a3.814,3.814,0,0,0-.431,0H34.71a2.127,2.127,0,0,1-.6-.041,7.013,7.013,0,0,1-.822-.171,8.7,8.7,0,0,1-.911-.212,6.3,6.3,0,0,1-.765-.22,5.034,5.034,0,0,1-.626-.155,2.22,2.22,0,0,0-2.392.325c-.342.024-.692.041-1.041.065-.342-.1-.537.138-.716.35a2.046,2.046,0,0,0-.423.838v.041c-.138.814-.065.887.765.838-.228.342-.407.683-.61,1.009-.041.073-.081.138-.114.212-.146.268-.033.447.179.618.553.448.545.456-.041.895a.862.862,0,0,0-.1.081,1.018,1.018,0,0,0-.268.391,3.37,3.37,0,0,0-.635.683,2.148,2.148,0,0,0-.22.374c-.2.545-.2.586.179.83Zm27.867.952a1.444,1.444,0,1,1,1.448,1.448A1.446,1.446,0,0,1,53.407,65.58Zm-23.571,0a1.444,1.444,0,1,1,1.44,1.448,1.445,1.445,0,0,1-1.44-1.448Z" transform="translate(-25.237 -44.539)" fill="#fff" fill-rule="evenodd"/>
                <path id="Path_11-2" data-name="Path 11" d="M38.39,55.726c-.081,0-.171,0-.252.008a15.065,15.065,0,0,0-1.717-.057c-.431,0-.846.089-1.277.122a7.738,7.738,0,0,1-.968.155,5.89,5.89,0,0,0-1.676.635,6,6,0,0,0-1.879,1.334c-.1.114-.252.2-.212.391.3.212.675.106,1,.2a3.123,3.123,0,0,1,.9.22,7.265,7.265,0,0,1,.83.2,1.386,1.386,0,0,1,.317.073A7.572,7.572,0,0,0,34.5,59.3c.309.049.626.089.928.163.846.057,1.7.033,2.547.024,1.644,0,3.279.016,4.922-.008a1.79,1.79,0,0,1,.8.155c.138.065.293.171.4-.057a7.355,7.355,0,0,0,.033-2.669,1.039,1.039,0,0,0-.805-.96c-.439-.1-.887-.171-1.326-.236a2.754,2.754,0,0,0-.521-.041,9.472,9.472,0,0,1-1.44-.049.752.752,0,0,0-.236-.033c-.334,0-.659-.016-.984-.008a.547.547,0,0,0-.439.13Z" transform="translate(-26.199 -46.597)" fill="#fff" fill-rule="evenodd"/>
            </g>
        </g>
    </g>
</svg>
