<svg height="44.201" viewBox="0 0 45.456 44.201" width="45.456" xmlns="http://www.w3.org/2000/svg">
    <g data-name="Group 51663" id="Group_51663" transform="translate(0)">
        <path d="M49.341,22.465H35.188a.123.123,0,0,0-.126.126V34.677a.123.123,0,0,1-.126.126H33.167a.168.168,0,0,1-.009-.09,5.812,5.812,0,0,0,.343-4.8,22.739,22.739,0,0,0-4.964-8.755,5.275,5.275,0,0,0-2.275-1.679.609.609,0,0,0-.695.135C23.6,20.741,13.779,25.118,11.18,26.265a2.715,2.715,0,0,0-.451,1.823,3.873,3.873,0,0,0,.451,1.083.009.009,0,0,1,.009-.009c0,.009-.009.009-.009.018s.009.018.018.036a17.763,17.763,0,0,0-.812,1.661H6.622v5.361H8.932a15.127,15.127,0,0,0,.018,4.784.132.132,0,0,1-.1.153,6.441,6.441,0,0,0-2.437,1.146,5.532,5.532,0,0,0-1.58,2.238.136.136,0,0,0,.063.171,2.632,2.632,0,0,0,.28.126,80.323,80.323,0,0,1,10.65,5.235,1.661,1.661,0,0,0,.83.226q7.433.014,14.866.009h.415a.125.125,0,0,1,.126.1c.054.217.108.415.171.623A6.185,6.185,0,0,0,44.2,50.724c.072-.334.208-.415.514-.406.523.018,1.038.009,1.58.009a.137.137,0,0,0,.135-.126,13.181,13.181,0,0,0-.406-3.917,9.968,9.968,0,0,0-3.087-5.334,8.024,8.024,0,0,0-4.323-1.868l-.379-.054a.134.134,0,0,1-.108-.108,1.646,1.646,0,0,1,1.543-1.95,5.717,5.717,0,0,1,.785-.036H49.4a.131.131,0,0,0,.135-.126V22.6C49.467,22.528,49.413,22.465,49.341,22.465ZM7.7,35.164V31.942H9.889l-.126.623a22.353,22.353,0,0,0-.659,2.6ZM22.119,48.242H17.164a1.424,1.424,0,0,1-.695-.181,86.224,86.224,0,0,0-8.042-4.089c-.081-.036-.153-.072-.235-.108a.127.127,0,0,1-.027-.217c1.255-1.038,3.574-.6,5.406,1.065a.125.125,0,0,0,.171,0c.442-.37.894-.749,1.408-1.173a.128.128,0,0,0,0-.2c-.442-.379-.857-.758-1.309-1.092a5.741,5.741,0,0,0-2.428-1.083.438.438,0,0,1-.406-.415c-.623-2.951.433-7.555,1.913-10.344.19.054.388.1.6.144h0a30.464,30.464,0,0,0-.208,4.973A11.216,11.216,0,0,0,17.227,43.1a8.819,8.819,0,0,0,3.818,1.959.541.541,0,0,1,.334.325c.081.208.487,1.841.74,2.834H22.11A.033.033,0,0,0,22.119,48.242Zm-3.033-11.3c.5,1.859,1.011,3.71,1.516,5.569a.134.134,0,0,1-.162.162c-1.309-.325-3.285-2.256-4.179-4.116-.9-1.886-.948-5.74-.695-7.861h.009c0-.009,0-.018.009-.018h.135a29.853,29.853,0,0,0,7.464-1.507.13.13,0,0,1,.19.054c.316.632.632,1.264.948,1.9a.134.134,0,0,1-.054.181c-1.155.578-2.284,1.146-3.412,1.706A3.109,3.109,0,0,0,19.086,36.942ZM26.2,48.233c-.65,0-1.959-.018-1.959-.018-.226-.885-.912-3.6-1.047-4.089l-2.085-7.636c-.253-.912-.1-1.237.74-1.652,1.634-.821,3.267-1.634,4.9-2.455.09-.045.181-.09.289-.153a.124.124,0,0,0,.054-.171c-.975-1.941-1.932-3.872-2.915-5.84a.137.137,0,0,0-.19-.054c-.6.4-1.182.785-1.769,1.173a15.124,15.124,0,0,1-4.233,1.291c-1,.009-2.013.045-3.015.009a6.826,6.826,0,0,1-1.534-.262,1.332,1.332,0,0,1-.848-.749c-.036-.081-.054-.262.036-.271.451-.063,13.115-5.605,13.214-5.677a.135.135,0,0,1,.162,0,5.536,5.536,0,0,1,.614.505,19.828,19.828,0,0,1,5.054,8.936,3.844,3.844,0,0,1,.1,1.065,2.612,2.612,0,0,1-2.293,2.7c-1.841.379-3.692.74-5.542,1.11-.09.018-.181.036-.3.063a.13.13,0,0,0-.1.153c.659,2.979,1.9,8.5,2.681,12.022Zm15.867,2.229A4.1,4.1,0,0,1,38.032,53.4c-1.8-.063-3.655-1.525-3.8-2.942a.129.129,0,0,1,.126-.144h7.573A.138.138,0,0,1,42.066,50.463Zm-3.89-9.387c2.969.361,4.666,2.175,5.569,4.883.226.668.352,1.363.533,2.1a.132.132,0,0,1-.117.162c-.135.009-.244.018-.343.018-3.935,0-11.706-.009-15.488-.009-.641-2.879-1.778-7.979-2.32-10.416a.122.122,0,0,1,.1-.153c.686-.135,1.363-.28,2.031-.415.433-.09.866-.171,1.3-.253a7.1,7.1,0,0,1,1.074-.108c1.787-.009,3.574-.009,5.361-.009h.244a.127.127,0,0,1,.126.153c-.09.623-.181,1.228-.28,1.823a.313.313,0,0,1-.208.19c-3.213.569-5.091,2.681-6.345,5.506-.162.361-.289.74-.424,1.119a.17.17,0,0,0-.018.072.136.136,0,0,0,.09.153c.56.19,1.11.37,1.688.569a.132.132,0,0,0,.162-.081c.045-.117.09-.235.135-.334A22.01,22.01,0,0,1,32.237,43.7,5.729,5.729,0,0,1,38.176,41.076ZM47.283,34.8h-10a.123.123,0,0,1-.126-.126V24.667a.123.123,0,0,1,.126-.126h3.845a.123.123,0,0,1,.126.126v3.818a.123.123,0,0,0,.126.126h1.805a.123.123,0,0,0,.126-.126V24.676a.123.123,0,0,1,.126-.126h3.818a.123.123,0,0,1,.126.126v10h.027A.123.123,0,0,1,47.283,34.8ZM21.117,20.578a4.639,4.639,0,1,0-4.639-4.648A4.632,4.632,0,0,0,21.117,20.578Zm0-7.212a2.572,2.572,0,1,1-2.581,2.563A2.568,2.568,0,0,1,21.117,13.367ZM11.2,53.288a3.961,3.961,0,0,1-2.762-.334C6.405,51.943,5.782,50,6.613,47.277c-.569-.307-1.146-.623-1.778-.966a6.06,6.06,0,0,0-.108,5.668,5.915,5.915,0,0,0,5.722,3.466,6.07,6.07,0,0,0,5.506-3.655c-.659-.3-1.264-.56-1.886-.839A4.187,4.187,0,0,1,11.2,53.288Z" data-name="Path 164918"
            fill="#bbbcbe"
            id="Path_164918" transform="translate(-4.074 -11.3)" />
        <rect data-name="Rectangle 17497" fill="#bbbcbe" height="1.57" id="Rectangle_17497"
            transform="translate(34.454 18.377)" width="7.681" />
        <rect data-name="Rectangle 17498" fill="#bbbcbe" height="1.57" id="Rectangle_17498"
            transform="translate(34.454 20.597)" width="7.681" />
        <path d="M144.791,390.3a.362.362,0,0,0-.361.361v1.616a.361.361,0,1,0,.722,0v-1.616A.362.362,0,0,0,144.791,390.3Zm-.93,0a.362.362,0,0,0-.361.361v1.616a.361.361,0,1,0,.722,0v-1.616A.362.362,0,0,0,143.861,390.3Zm2.825,0a.362.362,0,0,0-.361.361v1.616a.361.361,0,1,0,.722,0v-1.616A.362.362,0,0,0,146.686,390.3Zm.912,0a.362.362,0,0,0-.361.361v1.616a.361.361,0,1,0,.722,0v-1.616A.362.362,0,0,0,147.6,390.3Zm-1.841,0a.362.362,0,0,0-.361.361v1.616a.361.361,0,1,0,.722,0v-1.616A.362.362,0,0,0,145.756,390.3Z" data-name="Path 164919"
            fill="#bbbcbe"
            id="Path_164919" transform="translate(-130.915 -356.092)" />
    </g>
</svg>
